<svg width="11" height="10" viewBox="0 0 11 10" fill="none" xmlns="http://www.w3.org/2000/svg">
<g clip-path="url(#clip0)">
<path fill-rule="evenodd" clip-rule="evenodd" d="M6.20831 7.91668L6.20831 3.66668L8.16665 5.62501L8.74998 5.04168L5.79165 2.08334L2.83331 5.04168L3.41665 5.62501L5.37498 3.66668L5.37498 7.91668H6.20831Z" fill="#979797"/>
<path fill-rule="evenodd" clip-rule="evenodd" d="M5.75 9.16667C8.05119 9.16667 9.91667 7.30119 9.91667 5C9.91667 2.69881 8.05119 0.833333 5.75 0.833333C3.44881 0.833333 1.58333 2.69881 1.58333 5C1.58333 7.30119 3.44881 9.16667 5.75 9.16667ZM5.75 10C8.51142 10 10.75 7.76142 10.75 5C10.75 2.23858 8.51142 0 5.75 0C2.98858 0 0.75 2.23858 0.75 5C0.75 7.76142 2.98858 10 5.75 10Z" fill="#979797"/>
</g>
<defs>
<clipPath id="clip0">
<rect width="10" height="10" fill="white" transform="translate(0.75)"/>
</clipPath>
</defs>
</svg>
